<svg version="1.1" id="Layer_1" xmlns="http://www.w3.org/2000/svg" xmlns:xlink="http://www.w3.org/1999/xlink" x="0px" y="0px"
	 width="100%" viewBox="0 0 90 103" enable-background="new 0 0 90 103" xml:space="preserve">
<path fill="#FFFFFE" opacity="1.000000" stroke="none" 
	d="
M54.000000,104.000000 
	C36.429306,104.000000 18.858614,104.000000 1.000000,104.000000 
	C1.000000,94.981140 1.000000,85.959229 1.261904,76.645782 
	C2.358196,76.897575 3.192582,77.440895 4.272661,78.139755 
	C11.682525,82.522514 18.846695,86.749733 25.967384,91.349747 
	C25.642038,93.291214 25.360176,94.859886 25.078314,96.428551 
	C25.464411,96.637688 25.850506,96.846817 26.236601,97.055946 
	C27.503984,96.008736 28.771368,94.961517 30.409340,93.933899 
	C33.853333,95.302467 36.926735,96.651436 40.052361,98.389427 
	C43.725082,102.461365 50.545296,101.909439 52.944256,97.814758 
	C53.558044,96.767105 54.779209,96.052979 55.303650,94.981239 
	C55.894821,93.773117 56.710670,91.562828 56.223728,91.123192 
	C53.454937,88.623428 54.021267,85.903465 55.283474,82.964546 
	C55.890160,82.624962 56.212612,82.320213 56.535065,82.015465 
	C56.325603,81.833893 56.116150,81.652328 55.906693,81.470757 
	C55.604687,81.980705 55.302681,82.490654 54.609268,83.000244 
	C51.806648,82.336899 49.395443,81.673927 46.613304,81.008965 
	C45.499004,80.989944 44.755642,80.972908 44.002686,80.603630 
	C43.307178,79.514755 42.621258,78.778122 41.647339,77.910492 
	C40.568409,77.529953 39.777477,77.280403 39.027576,76.663422 
	C39.378819,74.863686 39.689030,73.431381 40.444801,71.999428 
	C46.569366,72.946892 50.886112,70.696426 55.085720,66.940132 
	C58.074341,64.266991 54.561745,62.530579 55.156559,60.471699 
	C55.455513,59.436905 56.251938,58.480179 57.010521,57.661552 
	C57.835373,56.771408 58.877361,56.082466 59.824673,55.305798 
	C59.708580,54.828056 59.592484,54.350311 59.476387,53.872566 
	C57.284714,54.063084 55.095913,54.321846 52.900112,54.414310 
	C51.857002,54.458237 50.069641,54.455994 49.900497,53.999744 
	C49.535255,53.014545 49.825367,51.665607 50.186035,50.577770 
	C50.399399,49.934242 51.259293,49.505066 52.270939,48.570908 
	C50.672241,47.463718 49.459560,46.623863 48.115173,45.692795 
	C47.549862,46.703579 47.357418,47.146523 47.079067,47.526546 
	C46.296036,48.595608 45.626369,50.265152 44.628086,50.502182 
	C43.764988,50.707119 41.960552,49.477394 41.599640,48.501781 
	C41.286430,47.655125 42.333893,46.232952 42.925236,45.144005 
	C43.522636,44.043903 44.298599,43.040768 45.348328,41.845150 
	C47.466930,41.457924 49.233540,41.220699 51.083412,41.370735 
	C58.764652,45.206852 64.584694,41.942432 63.211761,32.735329 
	C65.924538,32.653000 68.425102,32.834827 71.015587,33.340858 
	C71.059639,34.108208 71.013771,34.551353 70.720734,34.987724 
	C70.473549,34.980949 69.978958,34.990025 69.611816,35.067169 
	C67.843346,38.702808 66.148888,42.180305 65.135941,45.846119 
	C64.363228,48.642506 66.022377,50.188747 69.009552,50.470085 
	C69.006187,58.201141 68.970840,65.463837 69.013779,72.726067 
	C69.045166,78.035118 70.886848,79.895737 76.047775,79.987579 
	C77.697762,80.016945 79.348793,79.987869 80.913094,80.377792 
	C79.508369,81.179924 78.197929,81.908318 76.869972,81.941780 
	C72.330696,82.056183 67.690010,82.490280 63.266907,81.743210 
	C58.039917,80.860359 58.477005,83.978409 58.206581,86.395897 
	C60.098934,87.999672 62.041080,88.976280 62.789013,90.528366 
	C63.244057,91.472656 62.114651,93.489288 61.246925,94.702271 
	C58.962631,97.895477 56.432327,100.912689 54.000000,104.000000 
M66.491531,78.715111 
	C67.079834,75.184067 68.238014,71.461105 63.025543,68.618362 
	C63.025543,72.350807 62.827480,75.008049 63.158894,77.597511 
	C63.246395,78.281174 64.967636,78.755737 66.491531,78.715111 
M55.902477,76.220718 
	C57.648777,75.273087 57.648777,75.273087 55.239361,71.856911 
	C55.337662,73.610794 55.396145,74.654205 55.902477,76.220718 
M47.561092,77.910179 
	C48.460030,78.277100 49.358963,78.644012 50.257900,79.010933 
	C50.262535,78.440834 50.267170,77.870743 50.271801,77.300644 
	C49.283566,77.313148 48.295334,77.325653 47.561092,77.910179 
z"/>
<path fill="#FBFDF4" opacity="1.000000" stroke="none" 
	d="
M44.996338,41.995155 
	C44.298599,43.040768 43.522636,44.043903 42.925236,45.144005 
	C42.333893,46.232952 41.286430,47.655125 41.599640,48.501781 
	C41.960552,49.477394 43.764988,50.707119 44.628086,50.502182 
	C45.626369,50.265152 46.296036,48.595608 47.079067,47.526546 
	C47.357418,47.146523 47.549862,46.703579 48.115173,45.692795 
	C49.459560,46.623863 50.672241,47.463718 52.270939,48.570908 
	C51.259293,49.505066 50.399399,49.934242 50.186035,50.577770 
	C49.825367,51.665607 49.535255,53.014545 49.900497,53.999744 
	C50.069641,54.455994 51.857002,54.458237 52.900112,54.414310 
	C55.095913,54.321846 57.284714,54.063084 59.476387,53.872566 
	C59.592484,54.350311 59.708580,54.828056 59.824673,55.305798 
	C58.877361,56.082466 57.835373,56.771408 57.010521,57.661552 
	C56.251938,58.480179 55.455513,59.436905 55.156559,60.471699 
	C54.561745,62.530579 58.074341,64.266991 55.085720,66.940132 
	C50.886112,70.696426 46.569366,72.946892 40.445183,71.999886 
	C40.000000,72.000000 40.000763,72.000916 39.988972,71.612770 
	C37.652069,68.008698 34.860302,68.564308 30.716915,72.900345 
	C29.626781,72.862808 28.811174,72.937881 27.688232,72.972824 
	C26.573952,72.318001 25.767008,71.703300 24.935547,70.735840 
	C20.735273,68.013596 16.650862,65.449043 12.316001,63.419380 
	C11.302175,62.944687 9.439484,64.282967 7.682667,64.952820 
	C6.237001,66.409065 5.076012,67.699615 3.627713,69.116501 
	C2.560269,69.495232 1.780135,69.747620 1.000000,70.000000 
	C1.000000,52.645771 1.000000,35.291542 1.274052,17.655966 
	C2.892052,18.597427 4.080099,20.079355 5.607024,20.998049 
	C12.107141,24.908926 17.656485,30.803633 25.988857,31.008240 
	C25.999828,31.003910 25.989573,31.021322 26.051228,31.383738 
	C27.173038,32.121895 28.233194,32.497639 29.561718,32.903278 
	C30.233772,33.255058 30.637463,33.576935 31.028908,34.280857 
	C34.438583,36.401306 37.860508,38.139709 41.476517,39.871037 
	C41.670597,39.863964 41.995045,40.077511 42.049492,40.414810 
	C43.068073,41.166458 44.032204,41.580807 44.996338,41.995155 
M7.346491,36.450768 
	C2.597893,40.555862 2.593485,45.596382 7.650426,48.626461 
	C18.187300,54.940071 28.808764,61.117382 39.497303,67.170891 
	C44.593147,70.056953 48.075508,69.302292 50.183781,65.407173 
	C52.326855,61.447762 51.085381,58.072426 46.218929,55.203659 
	C36.063469,49.217045 25.934174,43.177879 15.619339,37.476540 
	C13.506329,36.308613 10.627207,36.526733 7.346491,36.450768 
z"/>
<path fill="#FEFEFD" opacity="1.000000" stroke="none" 
	d="
M85.000000,1.000000 
	C86.988098,1.000000 88.976204,1.000000 91.000000,1.000000 
	C91.000000,23.354216 91.000000,45.708450 90.623466,68.531342 
	C89.493858,68.999794 88.740776,68.999588 87.934624,68.584435 
	C87.586533,66.054085 87.051704,63.940418 87.036385,61.822994 
	C86.952271,50.194874 86.819923,38.562031 87.071556,26.938765 
	C87.190750,21.432753 88.149307,15.946506 88.668594,10.445734 
	C88.741119,9.677539 88.664558,8.286841 88.336914,8.181692 
	C84.231651,6.864198 79.652657,4.035141 76.010170,4.926042 
	C69.701363,6.469087 63.052673,9.318837 58.267361,13.561454 
	C54.268539,17.106768 49.782692,17.742233 45.507496,19.630844 
	C44.535450,20.060253 43.024078,20.190351 42.132366,19.733406 
	C35.363480,16.264765 28.686985,12.615818 22.143223,8.711123 
	C23.536505,5.932780 24.768253,3.466390 26.000000,1.000000 
	C44.687561,1.000000 63.375122,1.000000 82.572350,1.296747 
	C83.487129,1.910740 83.892235,2.227986 84.297340,2.545233 
	C84.531563,2.030156 84.765778,1.515078 85.000000,1.000000 
z"/>
<path fill="#FFFFFE" opacity="1.000000" stroke="none" 
	d="
M87.987701,68.999390 
	C88.740776,68.999588 89.493858,68.999794 90.623466,69.000000 
	C91.000000,80.595306 91.000000,92.190620 91.000000,104.000000 
	C78.979950,104.000000 66.958633,104.000000 54.468658,104.000000 
	C56.432327,100.912689 58.962631,97.895477 61.246925,94.702271 
	C62.114651,93.489288 63.244057,91.472656 62.789013,90.528366 
	C62.041080,88.976280 60.098934,87.999672 58.206581,86.395897 
	C58.477005,83.978409 58.039917,80.860359 63.266907,81.743210 
	C67.690010,82.490280 72.330696,82.056183 76.869972,81.941780 
	C78.197929,81.908318 79.508369,81.179924 81.240479,80.236687 
	C87.552055,78.375984 88.597458,74.177368 87.987701,68.999390 
z"/>
<path fill="#F6FCE2" opacity="1.000000" stroke="none" 
	d="
M87.934624,68.584435 
	C88.597458,74.177368 87.552055,78.375984 81.326736,79.844437 
	C79.348793,79.987869 77.697762,80.016945 76.047775,79.987579 
	C70.886848,79.895737 69.045166,78.035118 69.013779,72.726067 
	C68.970840,65.463837 69.006187,58.201141 69.333214,50.467442 
	C70.090172,49.995201 70.521904,49.994164 71.057373,50.452766 
	C71.181564,57.238911 71.124374,63.566929 71.247246,69.891449 
	C71.344086,74.875931 74.187767,78.007095 78.245323,77.907166 
	C81.924652,77.816551 84.897545,74.564117 84.923370,69.982819 
	C85.025681,51.834980 85.101936,33.685207 84.935387,15.538469 
	C84.863060,7.658123 79.605858,4.900460 72.846077,8.817926 
	C64.928673,13.406266 56.863220,17.765560 49.173122,22.708282 
	C45.468658,25.089281 42.699123,24.710094 39.221546,22.560745 
	C31.442064,17.752571 23.502632,13.197143 15.546330,8.683338 
	C10.642050,5.901019 6.815223,6.658286 4.774878,10.486105 
	C2.690541,14.396457 4.099107,17.654665 9.031031,20.629820 
	C14.703522,24.051714 20.330908,27.548380 25.977884,31.012569 
	C17.656485,30.803633 12.107141,24.908926 5.607024,20.998049 
	C4.080099,20.079355 2.892052,18.597427 1.274052,17.187309 
	C1.000000,14.299986 1.000000,11.599973 1.358482,8.415758 
	C3.150600,6.958624 4.584237,5.985692 6.334059,4.986873 
	C7.431034,4.648307 8.211823,4.335627 9.257915,4.302198 
	C11.349344,4.720429 13.175468,4.859408 15.294908,5.142118 
	C16.724012,5.860976 17.859802,6.436101 19.137667,7.298316 
	C20.180391,8.064629 21.081041,8.543852 21.981691,9.023075 
	C28.686985,12.615818 35.363480,16.264765 42.132366,19.733406 
	C43.024078,20.190351 44.535450,20.060253 45.507496,19.630844 
	C49.782692,17.742233 54.268539,17.106768 58.267361,13.561454 
	C63.052673,9.318837 69.701363,6.469087 76.010170,4.926042 
	C79.652657,4.035141 84.231651,6.864198 88.336914,8.181692 
	C88.664558,8.286841 88.741119,9.677539 88.668594,10.445734 
	C88.149307,15.946506 87.190750,21.432753 87.071556,26.938765 
	C86.819923,38.562031 86.952271,50.194874 87.036385,61.822994 
	C87.051704,63.940418 87.586533,66.054085 87.934624,68.584435 
z"/>
<path fill="#EFF8D1" opacity="1.000000" stroke="none" 
	d="
M1.000000,70.399994 
	C1.780135,69.747620 2.560269,69.495232 3.690750,69.511482 
	C3.502322,74.147064 6.202214,76.358994 9.522483,78.314178 
	C20.039907,84.507492 30.506424,90.787262 40.887070,97.248627 
	C40.573635,97.719116 40.313175,97.898026 40.000137,98.000404 
	C36.926735,96.651436 33.853333,95.302467 30.360870,93.586273 
	C28.631498,92.471680 27.321184,91.724312 26.010868,90.976944 
	C18.846695,86.749733 11.682525,82.522514 4.235501,77.793991 
	C2.968433,76.195122 1.984216,75.097557 0.999999,74.000000 
	C1.000000,72.933327 1.000000,71.866661 1.000000,70.399994 
z"/>
<path fill="#FEFEFD" opacity="1.000000" stroke="none" 
	d="
M18.995592,7.011228 
	C17.859802,6.436101 16.724012,5.860976 15.439683,4.906850 
	C14.860764,3.351900 14.430382,2.175950 14.000000,1.000000 
	C16.700014,1.000000 19.400026,1.000000 22.502621,1.328551 
	C21.601997,3.441811 20.298796,5.226520 18.995592,7.011228 
z"/>
<path fill="#FEFEFA" opacity="1.000000" stroke="none" 
	d="
M19.137667,7.298317 
	C20.298796,5.226520 21.601997,3.441811 22.952599,1.328551 
	C23.750000,1.000000 24.500000,1.000000 25.625000,1.000000 
	C24.768253,3.466390 23.536505,5.932780 22.143223,8.711123 
	C21.081041,8.543852 20.180391,8.064629 19.137667,7.298317 
z"/>
<path fill="#FCFDFB" opacity="1.000000" stroke="none" 
	d="
M13.583334,1.000000 
	C14.430382,2.175950 14.860764,3.351900 15.146369,4.763119 
	C13.175468,4.859408 11.349344,4.720429 9.260589,3.923828 
	C8.998639,2.510804 8.999320,1.755402 9.000000,1.000000 
	C10.388889,1.000000 11.777778,1.000000 13.583334,1.000000 
z"/>
<path fill="#FCFEFB" opacity="1.000000" stroke="none" 
	d="
M6.017873,5.012759 
	C4.584237,5.985692 3.150600,6.958624 1.358482,7.965778 
	C1.333333,5.666667 1.666667,3.333333 2.529337,1.330055 
	C4.045073,2.777659 5.031473,3.895209 6.017873,5.012759 
z"/>
<path fill="#FDFEFE" opacity="1.000000" stroke="none" 
	d="
M6.334059,4.986873 
	C5.031473,3.895209 4.045073,2.777659 3.029337,1.330055 
	C4.714358,1.000000 6.428717,1.000000 8.571537,1.000000 
	C8.999320,1.755402 8.998639,2.510804 8.995285,3.644576 
	C8.211823,4.335627 7.431034,4.648307 6.334059,4.986873 
z"/>
<path fill="#FBFDF4" opacity="1.000000" stroke="none" 
	d="
M0.999999,74.333328 
	C1.984216,75.097557 2.968433,76.195122 3.989810,77.638443 
	C3.192582,77.440895 2.358196,76.897575 1.261904,76.177124 
	C1.000000,75.555557 1.000000,75.111107 0.999999,74.333328 
z"/>
<path fill="#F6FCE2" opacity="1.000000" stroke="none" 
	d="
M84.666672,1.000000 
	C84.765778,1.515078 84.531563,2.030156 84.297340,2.545233 
	C83.892235,2.227986 83.487129,1.910740 83.041008,1.296747 
	C83.444443,1.000000 83.888893,1.000000 84.666672,1.000000 
z"/>
<path fill="#98BF2E" opacity="1.000000" stroke="none" 
	d="
M25.988857,31.008240 
	C20.330908,27.548380 14.703522,24.051714 9.031031,20.629820 
	C4.099107,17.654665 2.690541,14.396457 4.774878,10.486105 
	C6.815223,6.658286 10.642050,5.901019 15.546330,8.683338 
	C23.502632,13.197143 31.442064,17.752571 39.221546,22.560745 
	C42.699123,24.710094 45.468658,25.089281 49.173122,22.708282 
	C56.863220,17.765560 64.928673,13.406266 72.846077,8.817926 
	C79.605858,4.900460 84.863060,7.658123 84.935387,15.538469 
	C85.101936,33.685207 85.025681,51.834980 84.923370,69.982819 
	C84.897545,74.564117 81.924652,77.816551 78.245323,77.907166 
	C74.187767,78.007095 71.344086,74.875931 71.247246,69.891449 
	C71.124374,63.566929 71.181564,57.238911 71.138802,50.122757 
	C71.065163,48.885895 71.013824,48.438675 71.066238,47.538414 
	C71.102638,43.055077 71.035278,39.024792 70.967911,34.994503 
	C71.013771,34.551353 71.059639,34.108208 71.118271,32.935417 
	C71.131042,30.365202 71.131042,28.524630 71.131042,25.624001 
	C66.437813,28.494595 62.738125,30.757490 59.021210,33.007980 
	C59.003983,32.995571 59.016079,33.036091 58.663979,33.062737 
	C52.872932,35.418762 47.433987,37.748135 41.995045,40.077511 
	C41.995045,40.077511 41.670597,39.863964 41.275871,39.583241 
	C37.601147,37.501282 34.321152,35.700047 31.041153,33.898811 
	C30.637463,33.576935 30.233772,33.255058 29.371332,32.634186 
	C27.938246,31.897238 26.963909,31.459280 25.989573,31.021322 
	C25.989573,31.021322 25.999828,31.003910 25.988857,31.008240 
z"/>
<path fill="#FBFDF4" opacity="1.000000" stroke="none" 
	d="
M40.052361,98.389427 
	C40.313175,97.898026 40.573635,97.719116 41.233112,97.279007 
	C43.266567,97.288460 44.848423,97.482559 46.750950,97.701355 
	C47.364231,97.441284 47.656834,97.156525 48.103134,96.635788 
	C48.832829,95.928841 49.408829,95.457878 50.362602,94.956436 
	C51.342030,92.998375 52.572723,91.011993 52.399296,89.156883 
	C52.132938,86.307747 50.758545,83.700386 47.038017,83.973892 
	C47.024914,83.983467 47.028313,83.945625 47.020306,83.578690 
	C47.002945,82.478149 46.993591,81.744553 46.984241,81.010948 
	C49.395443,81.673927 51.806648,82.336899 54.608925,82.999939 
	C55.000000,83.000000 54.999237,82.999390 54.999237,82.999390 
	C54.021267,85.903465 53.454937,88.623428 56.223728,91.123192 
	C56.710670,91.562828 55.894821,93.773117 55.303650,94.981239 
	C54.779209,96.052979 53.558044,96.767105 52.944256,97.814758 
	C50.545296,101.909439 43.725082,102.461365 40.052361,98.389427 
z"/>
<path fill="#FBFDF4" opacity="1.000000" stroke="none" 
	d="
M62.999542,32.999489 
	C64.584694,41.942432 58.764652,45.206852 51.231194,41.068581 
	C53.869171,37.931473 56.442623,35.483780 59.016075,33.036087 
	C59.016079,33.036091 59.003983,32.995571 59.416969,33.010925 
	C60.886482,33.017345 61.943012,33.008419 62.999542,32.999489 
z"/>
<path fill="#FBFDF4" opacity="1.000000" stroke="none" 
	d="
M70.962486,47.991459 
	C71.013824,48.438675 71.065163,48.885895 71.035065,49.663116 
	C70.521904,49.994164 70.090172,49.995201 69.334785,49.998882 
	C66.022377,50.188747 64.363228,48.642506 65.135941,45.846119 
	C66.148888,42.180305 67.843346,38.702808 69.619301,35.529182 
	C70.316780,39.939857 70.639633,43.965656 70.962486,47.991459 
z"/>
<path fill="#FBFDF4" opacity="1.000000" stroke="none" 
	d="
M66.215111,79.020706 
	C64.967636,78.755737 63.246395,78.281174 63.158894,77.597511 
	C62.827480,75.008049 63.025543,72.350807 63.025543,68.618362 
	C68.238014,71.461105 67.079834,75.184067 66.215111,79.020706 
z"/>
<path fill="#F6FCE2" opacity="1.000000" stroke="none" 
	d="
M58.663975,33.062737 
	C56.442623,35.483780 53.869171,37.931473 51.147934,40.681320 
	C49.233540,41.220699 47.466930,41.457924 45.348328,41.845150 
	C44.032204,41.580807 43.068073,41.166458 42.049492,40.414810 
	C47.433987,37.748135 52.872932,35.418762 58.663975,33.062737 
z"/>
<path fill="#F6FCE2" opacity="1.000000" stroke="none" 
	d="
M63.211761,32.735329 
	C61.943012,33.008419 60.886482,33.017345 59.434196,33.023331 
	C62.738125,30.757490 66.437813,28.494595 71.131042,25.624001 
	C71.131042,28.524630 71.131042,30.365202 71.028351,32.611214 
	C68.425102,32.834827 65.924538,32.653000 63.211761,32.735329 
z"/>
<path fill="#FBFDF4" opacity="1.000000" stroke="none" 
	d="
M39.999619,71.999542 
	C39.689030,73.431381 39.378819,74.863686 38.593407,76.663391 
	C37.258224,77.129990 36.398239,77.229195 35.383011,77.289124 
	C35.227768,77.249863 34.994755,77.026817 35.006363,76.691940 
	C35.010487,75.910858 35.003002,75.464661 35.028809,74.670479 
	C35.559597,71.104973 37.592213,71.153084 40.000763,72.000916 
	C40.000763,72.000916 40.000000,72.000000 39.999619,71.999542 
z"/>
<path fill="#FBFDF4" opacity="1.000000" stroke="none" 
	d="
M25.967384,91.349747 
	C27.321184,91.724312 28.631498,92.471680 29.990282,93.566673 
	C28.771368,94.961517 27.503984,96.008736 26.236601,97.055946 
	C25.850506,96.846817 25.464411,96.637688 25.078314,96.428551 
	C25.360176,94.859886 25.642038,93.291214 25.967384,91.349747 
z"/>
<path fill="#EFF8D1" opacity="1.000000" stroke="none" 
	d="
M35.538258,77.328392 
	C36.398239,77.229195 37.258224,77.129990 38.552376,77.030823 
	C39.777477,77.280403 40.568409,77.529953 41.663891,78.291145 
	C41.971294,79.566650 41.974144,80.330513 41.624947,81.066849 
	C39.361351,79.802353 37.449802,78.565369 35.538258,77.328392 
z"/>
<path fill="#F6FCE2" opacity="1.000000" stroke="none" 
	d="
M71.066238,47.538414 
	C70.639633,43.965656 70.316780,39.939857 69.986443,35.452042 
	C69.978958,34.990025 70.473549,34.980949 70.720734,34.987724 
	C71.035278,39.024792 71.102638,43.055077 71.066238,47.538414 
z"/>
<path fill="#FBFDF4" opacity="1.000000" stroke="none" 
	d="
M55.678551,75.959167 
	C55.396145,74.654205 55.337662,73.610794 55.239361,71.856911 
	C57.648777,75.273087 57.648777,75.273087 55.678551,75.959167 
z"/>
<path fill="#FBFDF4" opacity="1.000000" stroke="none" 
	d="
M47.434097,77.624168 
	C48.295334,77.325653 49.283566,77.313148 50.271801,77.300644 
	C50.267170,77.870743 50.262535,78.440834 50.257900,79.010933 
	C49.358963,78.644012 48.460030,78.277100 47.434097,77.624168 
z"/>
<path fill="#EFF8D1" opacity="1.000000" stroke="none" 
	d="
M46.613304,81.008965 
	C46.993591,81.744553 47.002945,82.478149 46.677559,83.582489 
	C45.064472,83.087524 43.786129,82.221817 42.879906,81.241005 
	C43.505444,81.069221 43.758862,81.012550 44.012276,80.955872 
	C44.755642,80.972908 45.499004,80.989944 46.613304,81.008965 
z"/>
<path fill="#FBFDF4" opacity="1.000000" stroke="none" 
	d="
M44.002686,80.603638 
	C43.758862,81.012550 43.505444,81.069221 42.732101,81.207474 
	C42.212181,81.289047 41.976997,81.094376 41.976997,81.094376 
	C41.974144,80.330513 41.971294,79.566650 41.951889,78.422134 
	C42.621258,78.778122 43.307178,79.514755 44.002686,80.603638 
z"/>
<path fill="#FBFDF4" opacity="1.000000" stroke="none" 
	d="
M55.000340,83.000305 
	C55.302681,82.490654 55.604687,81.980705 55.906693,81.470757 
	C56.116150,81.652328 56.325603,81.833893 56.535065,82.015465 
	C56.212612,82.320213 55.890160,82.624962 55.283474,82.964546 
	C54.999237,82.999390 55.000000,83.000000 55.000340,83.000305 
z"/>
<path fill="#98BE31" opacity="1.000000" stroke="none" 
	d="
M7.723858,36.278358 
	C10.627207,36.526733 13.506329,36.308613 15.619339,37.476540 
	C25.934174,43.177879 36.063469,49.217045 46.218929,55.203659 
	C51.085381,58.072426 52.326855,61.447762 50.183781,65.407173 
	C48.075508,69.302292 44.593147,70.056953 39.497303,67.170891 
	C28.808764,61.117382 18.187300,54.940071 7.650426,48.626461 
	C2.593485,45.596382 2.597893,40.555862 7.723858,36.278358 
z"/>
<path fill="#98BE30" opacity="1.000000" stroke="none" 
	d="
M41.624947,81.066849 
	C41.976997,81.094376 42.212181,81.289047 42.359982,81.322578 
	C43.786129,82.221817 45.064472,83.087524 46.685566,83.949432 
	C47.028313,83.945625 47.024914,83.983467 47.157982,84.298523 
	C50.812809,87.389999 51.785480,90.828362 49.984829,94.986916 
	C49.408829,95.457878 48.832829,95.928841 47.807373,96.678169 
	C47.048702,97.196571 46.739487,97.436615 46.430275,97.676666 
	C44.848423,97.482559 43.266567,97.288460 41.338669,97.063980 
	C30.506424,90.787262 20.039907,84.507492 9.522483,78.314178 
	C6.202214,76.358994 3.502322,74.147064 3.978059,69.385132 
	C5.076012,67.699615 6.237001,66.409065 8.103819,64.989212 
	C11.294725,65.464432 13.885539,65.803368 16.238382,66.740067 
	C19.245991,67.937431 22.061668,69.616905 24.960064,71.088608 
	C25.767008,71.703300 26.573952,72.318001 27.836147,73.255386 
	C29.230677,73.965195 30.169954,74.352310 31.283215,74.971329 
	C31.982756,75.419228 32.508320,75.635231 33.167297,76.132118 
	C33.865398,76.617599 34.430077,76.822205 34.994755,77.026817 
	C34.994755,77.026817 35.227768,77.249863 35.383011,77.289124 
	C37.449802,78.565369 39.361351,79.802353 41.624947,81.066849 
z"/>
<path fill="#EFF8D1" opacity="1.000000" stroke="none" 
	d="
M24.935545,70.735840 
	C22.061668,69.616905 19.245991,67.937431 16.238382,66.740067 
	C13.885539,65.803368 11.294725,65.464432 8.388495,64.823502 
	C9.439484,64.282967 11.302175,62.944687 12.316001,63.419380 
	C16.650862,65.449043 20.735273,68.013596 24.935545,70.735840 
z"/>
<path fill="#FFFFFE" opacity="1.000000" stroke="none" 
	d="
M33.033882,75.851242 
	C32.508320,75.635231 31.982756,75.419228 31.272209,74.683228 
	C31.055296,73.779808 31.023369,73.396385 30.991442,73.012955 
	C34.860302,68.564308 37.652069,68.008698 39.988972,71.612770 
	C37.592213,71.153084 35.559597,71.104973 34.744068,74.679596 
	C33.961987,75.308205 33.497932,75.579720 33.033882,75.851242 
z"/>
<path fill="#F6FCE2" opacity="1.000000" stroke="none" 
	d="
M31.028908,34.280857 
	C34.321152,35.700047 37.601147,37.501282 41.081787,39.590313 
	C37.860508,38.139709 34.438583,36.401306 31.028908,34.280857 
z"/>
<path fill="#EFF8D1" opacity="1.000000" stroke="none" 
	d="
M30.716915,72.900345 
	C31.023369,73.396385 31.055296,73.779808 31.098228,74.451340 
	C30.169954,74.352310 29.230677,73.965195 28.143482,73.295517 
	C28.811174,72.937881 29.626781,72.862808 30.716915,72.900345 
z"/>
<path fill="#F6FCE2" opacity="1.000000" stroke="none" 
	d="
M26.051228,31.383738 
	C26.963909,31.459280 27.938246,31.897238 29.102966,32.604286 
	C28.233194,32.497639 27.173038,32.121895 26.051228,31.383738 
z"/>
<path fill="#EFF8D1" opacity="1.000000" stroke="none" 
	d="
M50.362602,94.956436 
	C51.785480,90.828362 50.812809,87.389999 47.171089,84.288948 
	C50.758545,83.700386 52.132938,86.307747 52.399296,89.156883 
	C52.572723,91.011993 51.342030,92.998375 50.362602,94.956436 
z"/>
<path fill="#EFF8D1" opacity="1.000000" stroke="none" 
	d="
M46.750946,97.701355 
	C46.739487,97.436615 47.048702,97.196571 47.653679,96.914139 
	C47.656834,97.156525 47.364231,97.441284 46.750946,97.701355 
z"/>
<path fill="#EFF8D1" opacity="1.000000" stroke="none" 
	d="
M33.167297,76.132118 
	C33.497932,75.579720 33.961987,75.308205 34.710777,75.027573 
	C35.003002,75.464661 35.010487,75.910858 35.006363,76.691940 
	C34.430077,76.822205 33.865398,76.617599 33.167297,76.132118 
z"/>
</svg>